<svg width="105" height="38" viewBox="0 0 105 38" fill="none" xmlns="http://www.w3.org/2000/svg">
<path d="M45.26 36.8835L47.0251 32.0132H47.7298L49.4906 36.8835H48.8531L48.3739 35.5521H46.3767L45.8953 36.8835H45.2578H45.26ZM46.5437 34.9775H48.2047L47.3764 32.6225L46.5437 34.9775Z" fill="#404040"/>
<path d="M50.2451 36.8837V33.4012H50.8523V33.9064C50.9087 33.811 50.9867 33.7199 51.0865 33.6354C51.1862 33.5508 51.3077 33.4836 51.4508 33.4315C51.5939 33.3795 51.7587 33.3535 51.9452 33.3535C52.1664 33.3535 52.368 33.3968 52.5523 33.4836C52.7367 33.5703 52.8863 33.7069 52.9969 33.8912C53.1075 34.0755 53.1639 34.3141 53.1639 34.6068V36.8837H52.5415V34.6675C52.5415 34.3965 52.4699 34.1948 52.3268 34.0625C52.1837 33.9303 51.9994 33.8652 51.7717 33.8652C51.6134 33.8652 51.4681 33.8912 51.3293 33.9411C51.1927 33.991 51.08 34.0669 50.9954 34.171C50.9108 34.2729 50.8675 34.4008 50.8675 34.5569V36.8837H50.2451Z" fill="#404040"/>
<path d="M57.8891 36.9508C57.4554 36.9508 57.0803 36.8533 56.7637 36.6581C56.4471 36.4629 56.2021 36.1789 56.0308 35.8081C55.8594 35.4373 55.7727 34.9862 55.7727 34.4593C55.7727 33.9323 55.8594 33.4748 56.0329 33.0997C56.2064 32.7267 56.4514 32.4405 56.768 32.2431C57.0868 32.0458 57.4598 31.946 57.8891 31.946C58.3185 31.946 58.6936 32.0436 59.008 32.241C59.3225 32.4383 59.5653 32.7224 59.7366 33.0975C59.9079 33.4705 59.9925 33.9258 59.9925 34.4593C59.9925 34.9927 59.9079 35.4373 59.7388 35.8081C59.5697 36.1789 59.3268 36.4629 59.0124 36.6581C58.698 36.8533 58.325 36.9508 57.8913 36.9508M57.8891 36.4087C58.1905 36.4087 58.4464 36.3393 58.6567 36.2027C58.8671 36.0661 59.0297 35.8536 59.1403 35.5652C59.2509 35.279 59.3073 34.9103 59.3073 34.4636C59.3073 34.0169 59.2509 33.6374 59.1381 33.3447C59.0254 33.052 58.8649 32.8373 58.6524 32.6963C58.4421 32.5554 58.1862 32.486 57.8869 32.486C57.5877 32.486 57.3362 32.5575 57.1215 32.6985C56.909 32.8394 56.7442 33.0563 56.6292 33.349C56.5143 33.6418 56.4579 34.0126 56.4579 34.4636C56.4579 34.9147 56.5143 35.279 56.6292 35.5652C56.7442 35.8536 56.9068 36.0639 57.1215 36.2027C57.334 36.3393 57.5899 36.4087 57.8869 36.4087" fill="#404040"/>
<path d="M62.8636 36.9508C62.4255 36.9508 62.0526 36.8511 61.7425 36.6516C61.4346 36.4521 61.1982 36.1637 61.0356 35.7885C60.8729 35.4134 60.7905 34.9602 60.7905 34.4311C60.7905 33.902 60.8708 33.4531 61.0334 33.0845C61.196 32.7137 61.4302 32.4318 61.7403 32.2366C62.0482 32.0415 62.4234 31.946 62.8636 31.946C63.2062 31.946 63.5119 32.0176 63.7765 32.1607C64.041 32.3038 64.2557 32.4947 64.4162 32.731C64.5788 32.9696 64.6721 33.2298 64.7024 33.516H64.0389C64.002 33.3252 63.9348 33.1517 63.8329 32.9977C63.731 32.8438 63.5987 32.7202 63.436 32.6269C63.2712 32.5359 63.0761 32.4882 62.8462 32.4882C62.5513 32.4882 62.3041 32.5576 62.1003 32.6963C61.8964 32.8351 61.7425 33.0476 61.6384 33.3339C61.5343 33.6201 61.4823 33.9887 61.4823 34.4376C61.4823 35.1163 61.5994 35.6129 61.8314 35.9317C62.0634 36.2483 62.4017 36.4087 62.8462 36.4087C63.0761 36.4087 63.2712 36.361 63.436 36.2634C63.6008 36.168 63.7331 36.0379 63.8329 35.8753C63.9348 35.7126 64.002 35.5392 64.0389 35.3505H64.7024C64.6786 35.5565 64.6222 35.756 64.5355 35.949C64.4487 36.1398 64.3294 36.3111 64.1798 36.4629C64.0302 36.6126 63.8437 36.7318 63.6247 36.8207C63.4057 36.9075 63.152 36.953 62.8614 36.953" fill="#404040"/>
<path d="M65.7173 36.8835V32.0132H67.2829C67.8749 32.0132 68.3237 32.1216 68.6295 32.3406C68.9331 32.5575 69.0849 32.8719 69.0849 33.2839C69.0849 33.5419 69.0176 33.7631 68.8854 33.9474C68.7509 34.1318 68.5167 34.2836 68.1828 34.4028C68.3736 34.444 68.5341 34.5026 68.6664 34.5785C68.7986 34.6544 68.9027 34.7433 68.9829 34.8474C69.0632 34.9493 69.1196 35.062 69.1543 35.1856C69.1889 35.3092 69.2063 35.4393 69.2063 35.576C69.2063 36.0162 69.0502 36.3436 68.7357 36.5604C68.4235 36.7773 67.9551 36.8857 67.3328 36.8857H65.7151L65.7173 36.8835ZM66.3396 34.1556H67.4C67.5279 34.1556 67.6559 34.1426 67.7816 34.1188C67.9074 34.0949 68.0223 34.0515 68.1286 33.9908C68.2348 33.9301 68.3194 33.8499 68.3845 33.7458C68.4495 33.6439 68.482 33.5159 68.482 33.3641C68.482 33.0801 68.3736 32.8676 68.1568 32.7331C67.9399 32.5965 67.658 32.5293 67.3132 32.5293H66.3396V34.1556ZM66.3396 36.3653H67.3262C67.7317 36.3653 68.0418 36.2981 68.2543 36.1658C68.4669 36.0313 68.5731 35.8253 68.5731 35.5478C68.5731 35.3439 68.5211 35.177 68.417 35.0512C68.3129 34.9254 68.1719 34.8322 67.9941 34.7736C67.8163 34.7151 67.619 34.6869 67.4021 34.6869H66.3418V36.3674L66.3396 36.3653Z" fill="#404040"/>
<path d="M72.0533 36.9508C71.6152 36.9508 71.2423 36.8511 70.9322 36.6516C70.6243 36.4521 70.3879 36.1637 70.2253 35.7885C70.0626 35.4134 69.9802 34.9602 69.9802 34.4311C69.9802 33.902 70.0605 33.4531 70.2231 33.0845C70.3857 32.7137 70.6199 32.4318 70.93 32.2366C71.2379 32.0415 71.6131 31.946 72.0533 31.946C72.3959 31.946 72.7016 32.0176 72.9662 32.1607C73.2307 32.3038 73.4454 32.4947 73.6059 32.731C73.7685 32.9696 73.8618 33.2298 73.8921 33.516H73.2286C73.1917 33.3252 73.1245 33.1517 73.0226 32.9977C72.9206 32.8438 72.7884 32.7202 72.6257 32.6269C72.4609 32.5359 72.2658 32.4882 72.0359 32.4882C71.741 32.4882 71.4938 32.5576 71.29 32.6963C71.0861 32.8351 70.9322 33.0476 70.8281 33.3339C70.724 33.6201 70.672 33.9887 70.672 34.4376C70.672 35.1163 70.7891 35.6129 71.0211 35.9317C71.2531 36.2483 71.5914 36.4087 72.0359 36.4087C72.2658 36.4087 72.4609 36.361 72.6257 36.2634C72.7905 36.168 72.9228 36.0379 73.0226 35.8753C73.1245 35.7126 73.1917 35.5392 73.2286 35.3505H73.8921C73.8683 35.5565 73.8119 35.756 73.7252 35.949C73.6384 36.1398 73.5191 36.3111 73.3695 36.4629C73.2199 36.6126 73.0334 36.7318 72.8144 36.8207C72.5954 36.9075 72.3417 36.953 72.0511 36.953" fill="#404040"/>
<path d="M78.2227 36.9508C77.7847 36.9508 77.4117 36.8511 77.1016 36.6516C76.7937 36.4521 76.5573 36.1637 76.3947 35.7885C76.2321 35.4134 76.1497 34.9602 76.1497 34.4311C76.1497 33.902 76.2299 33.4531 76.3925 33.0845C76.5552 32.7137 76.7894 32.4318 77.0994 32.2366C77.4074 32.0415 77.7825 31.946 78.2227 31.946C78.5653 31.946 78.8711 32.0176 79.1356 32.1607C79.4002 32.3038 79.6148 32.4947 79.7753 32.731C79.9379 32.9696 80.0312 33.2298 80.0616 33.516H79.398C79.3611 33.3252 79.2939 33.1517 79.192 32.9977C79.0901 32.8438 78.9578 32.7202 78.7952 32.6269C78.6304 32.5359 78.4352 32.4882 78.2053 32.4882C77.9104 32.4882 77.6632 32.5576 77.4594 32.6963C77.2556 32.8351 77.1016 33.0476 76.9975 33.3339C76.8934 33.6201 76.8414 33.9887 76.8414 34.4376C76.8414 35.1163 76.9585 35.6129 77.1905 35.9317C77.4225 36.2483 77.7608 36.4087 78.2053 36.4087C78.4352 36.4087 78.6304 36.361 78.7952 36.2634C78.96 36.168 79.0923 36.0379 79.192 35.8753C79.2939 35.7126 79.3611 35.5392 79.398 35.3505H80.0616C80.0377 35.5565 79.9813 35.756 79.8946 35.949C79.8078 36.1398 79.6886 36.3111 79.539 36.4629C79.3893 36.6126 79.2028 36.7318 78.9838 36.8207C78.7648 36.9075 78.5111 36.953 78.2205 36.953" fill="#404040"/>
<path d="M82.3232 36.9508C82.0023 36.9508 81.7226 36.8814 81.4819 36.7426C81.2434 36.6038 81.0569 36.4022 80.9246 36.1354C80.7923 35.8687 80.7251 35.5413 80.7251 35.1553C80.7251 34.791 80.788 34.4722 80.9116 34.199C81.0352 33.9258 81.2152 33.7133 81.4537 33.5615C81.6922 33.4097 81.9828 33.3338 82.3254 33.3338C82.6463 33.3338 82.9239 33.4032 83.1603 33.5441C83.3966 33.6851 83.5788 33.8911 83.7111 34.1622C83.8433 34.4332 83.9084 34.765 83.9084 35.1553C83.9084 35.5109 83.8477 35.8232 83.7262 36.0921C83.6048 36.361 83.427 36.5713 83.1928 36.7231C82.9586 36.8749 82.668 36.9508 82.3211 36.9508M82.3254 36.4585C82.5314 36.4585 82.7071 36.4065 82.8502 36.3002C82.9933 36.194 83.1039 36.0422 83.1776 35.8449C83.2535 35.6475 83.2904 35.4133 83.2904 35.1401C83.2904 34.8908 83.2579 34.6674 83.1906 34.4679C83.1234 34.2684 83.0193 34.1123 82.8784 33.9952C82.7374 33.8781 82.5509 33.8195 82.3232 33.8195C82.1129 33.8195 81.9329 33.8716 81.7876 33.9757C81.6424 34.0798 81.5318 34.2315 81.4559 34.4289C81.38 34.6262 81.3431 34.8626 81.3431 35.1401C81.3431 35.3852 81.3756 35.6063 81.4429 35.808C81.5101 36.0075 81.6142 36.1658 81.7594 36.2829C81.9047 36.4 82.0934 36.4585 82.3232 36.4585" fill="#404040"/>
<path d="M84.7302 36.8836V33.401H85.333V33.9063C85.4306 33.7545 85.5629 33.62 85.7299 33.5051C85.899 33.3902 86.118 33.3338 86.3869 33.3338C86.5127 33.3338 86.6406 33.3555 86.7729 33.3989C86.9052 33.4422 87.0244 33.5051 87.135 33.5897C87.2456 33.6743 87.3302 33.7805 87.3909 33.9041C87.4993 33.7328 87.6446 33.5962 87.8289 33.4921C88.0132 33.388 88.2214 33.336 88.4513 33.336C88.5727 33.336 88.6985 33.3555 88.8329 33.3924C88.9652 33.4292 89.0888 33.4943 89.2016 33.5875C89.3143 33.6808 89.4076 33.8087 89.4791 33.9757C89.5507 34.1405 89.5875 34.353 89.5875 34.611V36.8879H88.9608V34.6717C88.9608 34.4614 88.9262 34.2966 88.8589 34.1817C88.7917 34.0667 88.7028 33.9843 88.5944 33.9366C88.486 33.8889 88.3689 33.8651 88.2453 33.8651C88.1368 33.8651 88.0219 33.8868 87.9026 33.9301C87.7812 33.9735 87.6771 34.0451 87.5926 34.1448C87.508 34.2467 87.4646 34.3833 87.4646 34.559V36.8857H86.8444V34.4874C86.8444 34.3508 86.8076 34.2359 86.7338 34.1448C86.6601 34.0537 86.569 33.9822 86.4606 33.9366C86.3522 33.8889 86.2438 33.8651 86.1354 33.8651C86.0161 33.8651 85.8968 33.8889 85.7776 33.9366C85.6583 33.9843 85.5564 34.0581 85.474 34.1622C85.3916 34.2662 85.3504 34.3985 85.3504 34.559V36.8857H84.728L84.7302 36.8836Z" fill="#404040"/>
<path d="M90.5786 37.968V33.3991H91.1944L91.2009 34.0062C91.2421 33.9347 91.2942 33.8588 91.3571 33.7807C91.4221 33.7027 91.5002 33.6289 91.5934 33.5617C91.6867 33.4945 91.7951 33.4403 91.9209 33.3969C92.0445 33.3535 92.1876 33.3318 92.3459 33.3318C92.6234 33.3318 92.8706 33.3947 93.0831 33.5227C93.2957 33.6484 93.4605 33.8436 93.5797 34.1038C93.699 34.364 93.7575 34.6958 93.7575 35.097C93.7575 35.4981 93.699 35.8299 93.5841 36.1053C93.4691 36.3807 93.3022 36.591 93.0831 36.7342C92.8663 36.8773 92.6017 36.9488 92.2938 36.9488C92.1399 36.9488 92.0011 36.9271 91.8818 36.8838C91.7626 36.8404 91.6563 36.7819 91.5696 36.7125C91.4807 36.6409 91.4069 36.565 91.3462 36.4848C91.2877 36.4045 91.2378 36.3265 91.1988 36.2528V37.968H90.5764H90.5786ZM92.1789 36.4653C92.4673 36.4653 92.7015 36.3547 92.8836 36.1378C93.0658 35.9188 93.1569 35.5784 93.1569 35.1165C93.1569 34.7197 93.0745 34.4031 92.9075 34.1689C92.7405 33.9347 92.4998 33.8176 92.1789 33.8176C91.858 33.8176 91.6108 33.9368 91.4438 34.1754C91.2768 34.4139 91.1944 34.7262 91.1944 35.1143C91.1944 35.3637 91.2313 35.5892 91.305 35.7952C91.3787 35.999 91.4893 36.1617 91.6346 36.2831C91.7799 36.4045 91.9621 36.4653 92.1767 36.4653" fill="#404040"/>
<path d="M95.555 36.9508C95.3274 36.9508 95.1279 36.9118 94.9565 36.8315C94.7852 36.7513 94.6508 36.6364 94.5532 36.4867C94.4556 36.3371 94.4058 36.155 94.4058 35.9403C94.4058 35.5543 94.5402 35.2659 94.8091 35.0772C95.078 34.8886 95.5117 34.7867 96.1058 34.7737L96.726 34.7563V34.4831C96.726 34.2706 96.661 34.1014 96.533 33.9757C96.4051 33.8521 96.2077 33.7892 95.941 33.7913C95.7415 33.7913 95.5637 33.8369 95.4119 33.9301C95.2601 34.0234 95.1625 34.173 95.1192 34.3812H94.5706C94.5836 34.1535 94.6465 33.9627 94.7614 33.8065C94.8741 33.6504 95.0346 33.5311 95.2406 33.4509C95.4466 33.3707 95.6917 33.3295 95.9714 33.3295C96.275 33.3295 96.5265 33.3728 96.7282 33.4574C96.9298 33.542 97.0795 33.6677 97.1792 33.8347C97.279 34.0017 97.3288 34.2055 97.3288 34.4484V36.8814H96.7976L96.7499 36.2287C96.6154 36.4997 96.4441 36.6884 96.2381 36.7925C96.0321 36.8966 95.8044 36.9486 95.555 36.9486M95.7394 36.5041C95.8586 36.5041 95.9757 36.4824 96.0906 36.439C96.2056 36.3957 96.3118 36.3393 96.4072 36.2656C96.5027 36.1918 96.5807 36.1116 96.6371 36.0205C96.6956 35.9294 96.7238 35.8362 96.7238 35.7386V35.1423L96.2077 35.1531C95.941 35.1575 95.7177 35.1857 95.5399 35.2355C95.362 35.2854 95.2298 35.3635 95.1387 35.4676C95.0498 35.5717 95.0043 35.7104 95.0043 35.8796C95.0043 36.0747 95.0715 36.2287 95.2103 36.3371C95.3469 36.4477 95.5225 36.5019 95.735 36.5019" fill="#404040"/>
<path d="M98.2852 36.8837V33.4012H98.8923V33.9064C98.9487 33.811 99.0268 33.7199 99.1265 33.6354C99.2263 33.5508 99.3477 33.4836 99.4908 33.4315C99.6339 33.3795 99.7987 33.3535 99.9852 33.3535C100.206 33.3535 100.408 33.3968 100.592 33.4836C100.777 33.5703 100.926 33.7069 101.037 33.8912C101.148 34.0755 101.204 34.3141 101.204 34.6068V36.8837H100.582V34.6675C100.582 34.3965 100.51 34.1948 100.367 34.0625C100.224 33.9303 100.039 33.8652 99.8118 33.8652C99.6535 33.8652 99.5082 33.8912 99.3694 33.9411C99.2328 33.991 99.12 34.0669 99.0354 34.171C98.9509 34.2729 98.9075 34.4008 98.9075 34.5569V36.8837H98.2852Z" fill="#404040"/>
<path d="M102.418 37.9959C102.214 37.9959 102.034 37.9677 101.883 37.9092V37.5058L102.24 37.5123C102.368 37.5167 102.475 37.508 102.561 37.4863C102.646 37.4646 102.715 37.4343 102.767 37.3952C102.819 37.3562 102.858 37.315 102.887 37.2673C102.915 37.2196 102.939 37.174 102.956 37.1328L103.077 36.8032L101.716 33.4053H102.347L103.374 36.0942L104.396 33.4053H105.005L103.539 37.1502C103.448 37.3692 103.346 37.5427 103.233 37.6663C103.123 37.7899 102.999 37.8766 102.863 37.9265C102.726 37.9764 102.579 38.0002 102.42 38.0002" fill="#404040"/>
<path d="M49.7791 6.20832C49.7791 6.20832 49.7639 7.01715 50.1608 7.75876C50.1608 7.75876 51.2862 7.37928 52.8236 7.33591V11.2738C52.1189 11.7205 51.4423 11.8246 50.7267 11.8246C48.567 11.8246 47.1618 9.16392 47.1618 6.13025C47.1618 3.09658 48.5691 1.03872 50.2172 1.03872C51.6635 1.03872 53.3029 2.30944 54.025 3.95096C54.025 3.95096 54.9184 2.58266 55.2111 1.07775C53.8688 0.264582 52.1644 3.05176e-05 50.7376 3.05176e-05C47.2052 3.05176e-05 44.4924 2.38533 44.4924 6.54876C44.4924 10.7122 47.062 13.1517 50.0415 13.1517C51.3404 13.1517 52.3357 12.7462 53.086 12.1455C53.5132 12.2822 54.3914 12.6009 55.1699 13.1517V6.31023H53.0817C51.4033 6.31023 49.777 6.20832 49.777 6.20832H49.7791Z" fill="#212492"/>
<path d="M82.4339 3.51088C81.6381 3.32439 80.6211 3.18777 79.6713 3.18777C75.883 3.18777 74.1135 5.55356 74.1135 8.69565C74.1135 11.4713 75.7702 13.154 77.698 13.154C78.6694 13.154 79.4588 12.6422 80.0399 11.8724V12.9935H82.4252L82.4361 3.51304L82.4339 3.51088ZM78.4114 11.7879C77.5852 11.7879 76.5509 10.9639 76.5509 8.40725C76.5509 4.6775 78.6976 3.9077 80.0052 4.10503V10.8316C79.6214 11.4301 79.0142 11.7879 78.4136 11.7879H78.4114Z" fill="#212492"/>
<path d="M62.0353 3.18561C60.9836 3.18561 60.2311 3.95107 59.6391 4.91604V3.34608H57.2495V12.9914H59.6782V6.07399C59.9579 5.40394 60.4914 5.04614 61.04 5.04614C61.8466 5.04614 62.3866 5.70102 62.6793 6.71152C63.5901 5.482 63.7375 4.07251 63.7375 4.07251C63.2691 3.44582 62.5926 3.18344 62.0353 3.18344V3.18561Z" fill="#212492"/>
<path d="M69.5468 11.7944C68.2327 11.7944 67.2374 10.8923 66.8514 8.919C69.9783 9.02742 72.8775 8.50483 72.8775 8.50483C73.1399 4.91603 70.8045 3.18777 68.6143 3.18777C65.9471 3.18777 64.0823 5.18275 64.0823 8.07764C64.0823 10.6538 65.6956 13.1562 68.7466 13.1562C70.6353 13.1562 71.8453 12.2107 72.5371 11.2046L72.1706 10.4608C71.7955 10.9899 70.824 11.7965 69.5446 11.7965L69.5468 11.7944ZM68.6013 4.0725C69.5706 4.0725 70.5074 5.482 70.4272 7.71768C69.061 8.03861 67.5193 8.07114 66.73 8.04728C66.7148 7.89115 66.6931 7.74804 66.6844 7.58106C66.5847 5.5579 67.4867 4.0725 68.6013 4.0725Z" fill="#212492"/>
<path d="M84.624 10.9966C84.624 12.5167 85.4935 13.152 86.7252 13.152C87.5644 13.152 88.5705 12.8181 89.0693 11.9138L88.7267 11.2199C88.4751 11.6536 88.0154 11.9247 87.662 11.9247C87.3085 11.9247 87.0331 11.6796 87.0548 11.1353V4.3264C88.1737 4.3264 88.8373 4.51072 88.8373 4.51072C89.1235 3.98162 89.1734 3.26386 89.1734 3.26386C89.1734 3.26386 88.3125 3.34626 87.0548 3.34626V0.160797C85.9424 0.947946 84.6261 1.28406 84.6261 1.28406V3.34626C83.9778 3.34192 83.5679 3.33758 83.5679 3.33758C83.5679 3.33758 83.5614 3.89054 83.7045 4.36109C83.7045 4.36109 84.1361 4.32423 84.6283 4.32423V10.9944L84.624 10.9966Z" fill="#212492"/>
<path d="M63.271 18.6011C62.4752 18.4146 61.4582 18.278 60.5084 18.278C56.7201 18.278 54.9507 20.6437 54.9507 23.7858C54.9507 26.5615 56.6074 28.2442 58.5351 28.2442C59.5066 28.2442 60.2959 27.7324 60.8771 26.9626V28.0837H63.2624L63.2732 18.6032L63.271 18.6011ZM59.2486 26.878C58.4224 26.878 57.388 26.054 57.388 23.4974C57.388 19.7677 59.5348 18.9979 60.8424 19.1952V25.9218C60.4586 26.5203 59.8514 26.878 59.2507 26.878H59.2486Z" fill="#212492"/>
<path d="M66.7559 19.9672C66.7559 19.4858 67.3457 19.0868 68.1394 19.0868C69.4296 19.0868 70.6743 20.0951 71.2836 20.9647C72.0925 20.0344 72.2291 18.8851 72.2291 18.8851C71.2164 18.4753 69.8937 18.278 68.6381 18.278C66.654 18.278 64.8889 19.0955 64.8889 20.7782C64.8889 23.7381 70.6396 24.4429 70.6396 26.2861C70.6396 26.9388 70.2016 27.4006 69.2583 27.4006C67.9139 27.4006 66.3634 26.0172 65.856 25.0002C64.9192 25.9261 64.6287 27.0537 64.6287 27.0537C65.8864 27.7606 67.3436 28.2463 69.0935 28.2463C71.1796 28.2463 72.3592 27.1643 72.3592 25.5271C72.3592 22.0901 66.7537 21.5979 66.7537 19.9693L66.7559 19.9672Z" fill="#212492"/>
<path d="M53.4958 25.1237C51.9649 26.6655 50.2756 26.9496 47.9727 26.9843V21.7583C50.6746 21.7952 51.9172 22.7558 51.9172 22.7558C52.4484 21.8277 52.5872 20.6133 52.5872 20.6133C52.5872 20.6133 51.1777 20.7174 49.4733 20.7174H47.9706V16.4434C50.2735 16.4781 52.3378 16.8966 53.5305 18.2823C53.5305 18.2823 54.0899 17.0289 54.335 15.4134H45.4248V28.0815H54.3697C54.1528 26.5506 53.4936 25.1216 53.4936 25.1216L53.4958 25.1237Z" fill="#212492"/>
<path d="M104.762 28.0817L104.758 21.1687C104.758 19.2475 103.394 18.276 101.761 18.276C100.36 18.276 99.4409 19.0848 98.8359 20.0563V18.4365H96.4463V28.0817H98.875V21.2273C99.2826 20.3946 99.9613 19.8763 100.716 19.8763C101.514 19.8763 102.344 20.3057 102.344 21.6653V28.0817H104.76H104.762Z" fill="#212492"/>
<path d="M93.8182 18.2782C92.7665 18.2782 92.0141 19.0436 91.4221 20.0086V18.4386H89.0325V28.0839H91.4611V21.1665C91.7409 20.4965 92.2743 20.1387 92.8229 20.1387C93.6296 20.1387 94.1695 20.7936 94.4623 21.8041C95.373 20.5746 95.5205 19.1651 95.5205 19.1651C95.0521 18.5384 94.3755 18.276 93.8182 18.276V18.2782Z" fill="#212492"/>
<path d="M84.2509 26.8846C82.9368 26.8846 81.9415 25.9825 81.5555 24.0092C84.6824 24.1176 87.5816 23.595 87.5816 23.595C87.844 20.0062 85.5086 18.278 83.3184 18.278C80.6512 18.278 78.7864 20.2729 78.7864 23.1678C78.7864 25.7439 80.3997 28.2463 83.4507 28.2463C85.3394 28.2463 86.5494 27.3009 87.2412 26.2947L86.8747 25.551C86.4996 26.0801 85.5281 26.8867 84.2487 26.8867L84.2509 26.8846ZM83.3054 19.1627C84.2747 19.1627 85.2115 20.5722 85.1313 22.8079C83.7651 23.1288 82.2234 23.1613 81.4341 23.1375C81.4189 22.9813 81.3972 22.8382 81.3885 22.6712C81.2888 20.6481 82.1909 19.1627 83.3054 19.1627Z" fill="#212492"/>
<path d="M74.0678 26.091C74.0678 27.6111 74.9374 28.2465 76.169 28.2465C77.0082 28.2465 78.0144 27.9125 78.5131 27.0083L78.1705 26.3144C77.919 26.7481 77.4593 27.0191 77.1058 27.0191C76.7523 27.0191 76.477 26.7741 76.4986 26.2298V19.4209C77.6176 19.4209 78.2811 19.6052 78.2811 19.6052C78.5673 19.0761 78.6172 18.3583 78.6172 18.3583C78.6172 18.3583 77.7563 18.4407 76.4986 18.4407V15.2552C75.3862 16.0424 74.07 16.3785 74.07 16.3785V18.4407C73.4216 18.4364 73.0118 18.432 73.0118 18.432C73.0118 18.432 73.0053 18.985 73.1484 19.4555C73.1484 19.4555 73.5799 19.4187 74.0721 19.4187V26.0889L74.0678 26.091Z" fill="#212492"/>
<path d="M39.1493 34.6568C39.1601 34.659 38.6354 34.7153 38.2385 34.8715C38.2385 34.8715 37.5772 34.4356 36.751 34.0518C36.1763 33.1085 35.426 31.5884 35.1875 29.7192C34.9425 27.8066 35.1181 26.4167 34.5869 24.6299C34.9642 24.9703 35.4868 25.5493 35.7123 26.3126C37.1955 24.7123 38.1149 22.4592 38.1149 19.612C38.1149 15.8628 36.5536 13.536 35.3371 12.2133C36.0202 11.8989 36.7878 11.695 38.193 12.261C38.193 12.261 38.5855 11.6517 38.6635 10.8992C38.7416 10.1337 38.4857 9.56126 38.4857 9.56126C38.4857 9.56126 38.1041 9.82581 37.4752 9.82581C36.8464 9.82581 36.6664 9.51789 36.6469 9.28587C36.623 8.99096 36.8681 8.6375 37.5294 8.58329C38.1887 8.53125 38.5703 8.94976 38.5703 8.94976C38.5703 8.94976 39.2881 8.10189 39.1601 6.82684C39.1601 6.82684 39.5092 6.37797 39.5396 5.62985C39.5396 5.62985 38.438 4.78849 35.8164 4.5955C35.8164 4.5955 35.5518 4.15313 35.2439 3.81486C35.2439 3.81486 34.8839 3.60669 34.4828 3.53513C34.4828 3.53513 34.8514 3.13613 34.8514 2.58534C34.8514 1.35366 33.0082 0.00704956 30.3779 0.00704956C28.539 0.00704956 27.3746 0.523142 27.3746 0.523142C27.3746 0.523142 28.9836 0.705293 29.4823 1.62038C29.4823 1.62038 28.0078 0.991528 26.4443 1.57051C25.2668 2.00853 24.2043 2.04757 23.4822 1.55749C23.4822 1.55749 23.7684 2.93663 24.9112 3.38333C24.9112 3.38333 23.5321 3.62403 22.5996 5.17881C21.8212 6.47555 21.3528 7.41232 19.9736 7.84601C19.9736 7.84601 20.9581 8.52474 22.27 8.34042C22.27 8.34042 21.0232 9.61113 20.8844 11.8533C20.776 13.5989 20.2512 14.9304 19.1518 15.5419C19.1518 15.5419 20.3683 15.9756 21.6954 15.5419C21.5696 16.9774 20.3271 18.105 18.4861 18.105C16.6451 18.105 16.0856 17.8036 14.147 17.8209C11.74 17.8426 10.2047 18.504 8.08617 19.2477C5.06551 20.306 1.2577 19.6532 1.2577 16.6087C1.2577 14.8458 2.76695 13.4623 5.14141 13.4623C7.51586 13.4623 8.83862 14.128 10.7404 14.128C13.0563 14.128 14.546 12.3477 14.3638 10.3159C14.3638 10.3159 13.6418 11.695 11.5188 11.4934C10.0291 11.3524 9.12919 11.9943 8.57841 12.827C7.39443 12.6513 6.6745 12.4345 5.07635 12.4345C2.10991 12.4345 0 14.1779 0 16.8082C0 19.4386 2.55444 21.1668 5.57943 21.1668C7.01062 21.1668 8.14255 20.9955 8.94054 20.796C7.63296 22.6479 7.79993 23.7733 7.24914 24.9074C6.43597 26.5858 5.39078 27.065 3.90756 27.4662C3.01849 27.7069 2.4612 27.9693 2.4612 27.9693C2.06654 31.8031 0 34.7804 0 34.7804C0.86955 35.2379 1.43985 36.166 1.66537 36.886H6.98676C7.29468 36.5867 7.51587 35.9015 7.51587 35.9015C7.51587 35.9015 7.21445 35.3637 6.51187 34.6568C6.52271 34.659 6.05216 34.6828 5.60112 34.8715C5.60112 34.8715 5.11322 34.5614 4.4475 34.1776C4.4822 33.8154 4.59929 33.037 4.98528 32.1023C5.4168 31.0615 6.18443 30.3828 6.18443 30.3828C8.43746 30.5953 9.2528 30.6516 10.4454 29.7474C11.0656 29.2768 11.7227 28.6653 12.4686 28.1146C12.3602 29.0925 11.9829 29.9296 11.2087 30.7319C10.1831 31.7944 9.76889 32.7681 9.76889 32.7681C11.4169 33.5487 12.9197 35.29 13.1343 36.8838H18.0502C18.3581 36.5845 18.5793 35.8993 18.5793 35.8993C18.5793 35.8993 18.2779 35.3615 17.5753 34.6546C17.5862 34.6568 17.0549 34.6806 16.3675 34.8953C15.6064 34.4291 14.1535 33.4186 14.1535 32.4645C14.1535 31.3824 15.3331 31.3759 16.7969 30.2548C17.3672 29.819 17.9049 28.7651 18.2649 27.399C17.7141 27.1301 17.2782 26.833 17.2782 26.833C19.3426 26.9371 21.9686 27.991 24.1783 28.4984C24.5903 30.2028 24.2 31.4995 23.699 32.5577C23.1396 33.7417 22.8837 34.7782 22.8837 34.7782C23.6947 35.2163 24.02 35.8993 24.2412 36.8838H29.0638C29.3717 36.5845 29.5929 35.8993 29.5929 35.8993C29.5929 35.8993 29.2915 35.3615 28.5889 34.6546C28.5998 34.6568 28.0988 34.7132 27.6782 34.8693C27.6782 34.8693 27.2228 34.5787 26.5896 34.2122C26.9843 32.4493 28.2983 31.5277 29.2069 29.6607C28.6171 29.5479 28.0316 29.1966 27.8755 29.0383C28.4761 29.0839 29.2828 29.0947 29.7881 29.0188C30.6251 30.3849 31.6659 31.12 32.1972 32.6488C32.6222 33.8696 32.2709 34.7739 32.2709 34.7739C33.1318 35.149 33.6067 35.9622 33.9515 36.8838H39.6263C39.9343 36.5845 40.1554 35.8993 40.1554 35.8993C40.1554 35.8993 39.854 35.3615 39.1515 34.6546L39.1493 34.6568ZM36.61 19.5925C35.7426 16.9557 33.4744 15.8585 31.0783 14.7005L30.5145 14.4273C28.4978 13.4406 27.8234 12.0832 27.6131 11.1182C27.3594 9.95592 27.65 8.72207 28.3894 7.81566C27.5069 10.086 28.886 12.3109 32.0476 13.8505C35.7014 15.6286 36.5124 18.0378 36.6079 19.5925H36.61ZM32.0563 10.3874L32.4466 10.7452C33.2901 11.5085 34.4221 12.5299 35.2417 14.0695C34.396 13.2021 33.5872 12.6838 32.8651 12.2176C31.8871 11.5866 31.0414 11.0423 30.4972 9.8475C30.0548 8.88037 30.2521 7.63351 30.9612 6.88105C30.688 7.81349 30.6901 9.11456 32.0541 10.3896L32.0563 10.3874ZM37.356 10.4872C37.7701 10.4872 38.0325 10.42 38.0325 10.42C38.1279 10.9274 37.8742 11.296 37.8742 11.296C37.8742 11.296 36.9418 10.8276 35.4954 11.1421C35.4954 11.1421 35.4911 10.5761 35.9617 10.3961C36.4712 10.201 36.8963 10.4872 37.3538 10.4872H37.356ZM34.7668 4.36131C34.7668 4.36131 35.1637 4.67139 35.3328 5.18532C34.5977 5.18532 33.9168 5.45638 33.6241 5.82501C33.6241 5.82501 34.1879 5.87706 34.6346 6.05053C35.2265 6.27822 35.5974 6.6165 35.5974 6.6165C35.5605 6.25871 35.4781 6.05921 35.3371 5.87923C35.3371 5.87923 35.4672 5.59733 35.4716 5.2764C35.8814 5.26338 37.4362 5.26555 38.6722 5.9703C38.6722 5.9703 38.1106 5.96379 37.3842 6.36279C37.3842 6.36279 37.6986 6.40399 37.9957 6.4929C38.3144 6.58831 38.5074 6.6924 38.5074 6.6924C38.6007 7.45786 38.2667 7.95444 38.2667 7.95444C36.9787 7.59447 36.4647 8.32524 35.9421 8.32524C35.2656 8.32524 35.1875 7.78313 35.1875 7.78313C34.0773 7.93926 33.2793 8.56594 33.2793 8.56594C32.3121 7.64652 32.6981 6.04836 32.6981 6.04836C32.0194 5.03786 30.8333 4.54996 30.8333 4.54996C32.1473 4.14013 33.5807 4.08158 34.7647 4.36348L34.7668 4.36131ZM28.5043 4.05772C29.1917 4.05772 30.0895 4.60417 30.4213 5.31109C30.4213 5.31109 29.6536 4.8015 28.9359 4.8015C28.4783 4.8015 28.1379 5.08123 28.3048 5.55829C28.5369 6.21317 29.478 6.59481 29.478 6.59481C28.3872 6.67505 27.3767 5.83586 27.4136 4.98148C27.4375 4.42202 27.9405 4.05989 28.5043 4.05989V4.05772ZM30.1068 18.0724C29.5192 17.7884 28.9662 17.5195 28.4935 17.2549C25.5899 15.6178 24.5209 12.931 24.4862 11.1291C23.3456 14.0868 24.2802 17.1812 26.8433 19.3822C24.2932 18.0508 23.0181 16.0428 23.0225 13.1284C23.0247 10.8081 23.9701 8.73942 25.7569 7.14777C24.0113 10.7821 25.2386 13.9784 29.0985 16.071C32.7914 18.0724 35.515 19.5448 35.8229 22.7238C34.9251 20.4014 32.2709 19.1176 30.109 18.0724H30.1068Z" fill="#D52B1E"/>
</svg>
